mtllib ./Palette.mtl
g Palette
v 0 -0.258398 0
v 0 -0.129199 -0.180597
v 0 0.129199 -0.180597
v 0 0.258398 0
v 0 0.129199 0.180597
v 0 -0.129199 0.180597
v 0 -0.115781 0
v 0 -0.057891 -0.080921
v 0 0.057891 -0.080921
v 0 0.115781 0
v 0 0.057891 0.080921
v 0 -0.057891 0.080921
v -0.05 -0.18709 0
v -0.05 -0.093545 -0.130759
v -0.05 0.093545 -0.130759
v -0.05 0.18709 0
v -0.05 0.093545 0.130759
v -0.05 -0.093545 0.130759
v 0.05 -0.18709 0
v 0.05 -0.093545 0.130759
v 0.05 0.093545 0.130759
v 0.05 0.18709 0
v 0.05 0.093545 -0.130759
v 0.05 -0.093545 -0.130759
v -0.05 -0.093545 -0.130759
v 0 -0.129199 -0.180597
v -0.05 0.093545 -0.130759
v 0 0.129199 -0.180597
v -0.05 0.18709 0
v 0 0.258398 0
v -0.05 0.093545 0.130759
v 0 0.129199 0.180597
v 0 -0.258398 0
v -0.05 -0.18709 0
v -0.05 -0.093545 0.130759
v 0 -0.129199 0.180597
v -0.05 -0.18709 0
v -0.05 -0.093545 -0.130759
v -0.05 -0.093545 -0.130759
v -0.05 0.093545 -0.130759
v 0 -0.057891 -0.080921
v -0.05 0.093545 -0.130759
v -0.05 0.18709 0
v 0 0.057891 -0.080921
v -0.05 0.18709 0
v -0.05 0.093545 0.130759
v 0 0.115781 0
v -0.05 0.093545 0.130759
v -0.05 -0.093545 0.130759
v 0 0.057891 0.080921
v -0.05 -0.093545 0.130759
v -0.05 -0.18709 0
v 0 -0.115781 0
v 0 -0.057891 0.080921
v 0 -0.129199 0.180597
v 0 -0.258398 0
v 0 0.129199 0.180597
v 0.05 -0.093545 0.130759
v 0 -0.129199 0.180597
v 0 0.258398 0
v 0.05 0.093545 0.130759
v 0 0.129199 0.180597
v 0 0.129199 -0.180597
v 0.05 0.18709 0
v 0 0.258398 0
v 0 -0.129199 -0.180597
v 0.05 0.093545 -0.130759
v 0 0.129199 -0.180597
v 0 -0.258398 0
v 0.05 -0.18709 0
v 0.05 -0.093545 -0.130759
v 0 -0.129199 -0.180597
v 0.05 -0.18709 0
v 0.05 -0.093545 0.130759
v 0 -0.057891 0.080921
v 0 -0.115781 0
v 0.05 -0.093545 0.130759
v 0.05 0.093545 0.130759
v 0 0.057891 0.080921
v 0 -0.057891 0.080921
v 0.05 0.093545 0.130759
v 0.05 0.18709 0
v 0 0.115781 0
v 0 0.057891 0.080921
v 0.05 0.18709 0
v 0.05 0.093545 -0.130759
v 0 0.057891 -0.080921
v 0 0.115781 0
v 0.05 0.093545 -0.130759
v 0.05 -0.093545 -0.130759
v 0 -0.057891 -0.080921
v 0 0.057891 -0.080921
v 0.05 -0.093545 -0.130759
v 0.05 -0.18709 0
v 0 -0.115781 0
v 0 -0.057891 -0.080921

vn -0.7573832 -0.5310642 -0.3799231
vn -0.7573832 -0.5310642 -0.3799231
vn -0.7059585 0 -0.7082532
vn -0.757383 0.5310642 -0.3799232
vn -0.7573831 0.5310642 0.3799232
vn -0.7059585 0 0.7082532
vn -0.7573854 0.531063 0.3799202
vn -0.7573854 0.531063 0.3799202
vn -0.7059584 0 0.7082533
vn -0.7573854 -0.531063 0.3799203
vn -0.7573855 -0.5310628 -0.3799202
vn -0.7059584 0 -0.7082533
vn -0.7573832 -0.5310642 -0.3799231
vn -0.7573832 -0.5310642 -0.3799231
vn -0.7059585 0 -0.7082533
vn -0.7573831 0.5310642 -0.3799232
vn -0.7573831 0.5310642 0.3799232
vn -0.7059585 0 0.7082533
vn 0.7573831 -0.5310642 0.3799232
vn 0.7573831 -0.5310642 0.3799232
vn 0.7059585 0 0.7082533
vn 0.7573831 0.5310642 0.3799232
vn 0.7573832 0.5310642 -0.3799231
vn 0.7059585 0 -0.7082533
vn -0.7059585 0 -0.7082533
vn -0.7059585 0 -0.7082532
vn -0.7573831 0.5310643 -0.3799232
vn -0.7573831 0.5310642 -0.3799232
vn -0.7573831 0.5310642 0.3799232
vn -0.7573831 0.5310642 0.3799232
vn -0.7059585 0 0.7082533
vn -0.7059585 0 0.7082532
vn -0.7573831 -0.5310642 0.3799232
vn -0.7573831 -0.5310642 0.3799232
vn -0.7573831 -0.5310642 0.3799232
vn -0.7573831 -0.5310642 0.3799232
vn -0.7573854 0.5310629 0.3799202
vn -0.7573854 0.531063 0.3799202
vn -0.7059585 0 0.7082533
vn -0.7059585 0 0.7082533
vn -0.7059584 0 0.7082533
vn -0.7573854 -0.531063 0.3799203
vn -0.7573854 -0.531063 0.3799203
vn -0.7573854 -0.531063 0.3799203
vn -0.7573854 -0.5310629 -0.3799202
vn -0.7573855 -0.5310628 -0.3799202
vn -0.7573855 -0.5310629 -0.3799202
vn -0.7059584 0 -0.7082533
vn -0.7059584 0 -0.7082533
vn -0.7059584 0 -0.7082533
vn -0.7573856 0.5310628 -0.3799202
vn -0.7573855 0.531063 -0.3799202
vn -0.7573855 0.5310629 -0.3799202
vn -0.7573855 0.5310628 -0.3799202
vn 0.7573831 -0.5310642 0.3799232
vn 0.7573831 -0.5310642 0.3799232
vn 0.7059585 0 0.7082532
vn 0.7059585 0 0.7082533
vn 0.7059585 0 0.7082532
vn 0.7573831 0.5310642 0.3799232
vn 0.7573831 0.5310642 0.3799232
vn 0.7573831 0.5310642 0.3799232
vn 0.7573832 0.5310642 -0.3799231
vn 0.7573832 0.5310642 -0.3799231
vn 0.7573831 0.5310642 -0.3799232
vn 0.7059585 0 -0.7082532
vn 0.7059585 0 -0.7082533
vn 0.7059585 0 -0.7082532
vn 0.7573831 -0.5310642 -0.3799232
vn 0.7573831 -0.5310642 -0.3799232
vn 0.7573831 -0.5310642 -0.3799232
vn 0.7573831 -0.5310642 -0.3799232
vn 0.7573855 0.531063 -0.3799202
vn 0.7573856 0.5310628 -0.3799202
vn 0.7573855 0.5310628 -0.3799202
vn 0.7573855 0.5310629 -0.3799202
vn 0.7059584 0 -0.7082533
vn 0.7059584 0 -0.7082533
vn 0.7059584 0 -0.7082533
vn 0.7059584 0 -0.7082533
vn 0.7573855 -0.5310628 -0.3799202
vn 0.7573854 -0.5310629 -0.3799202
vn 0.7573855 -0.5310629 -0.3799202
vn 0.7573855 -0.5310628 -0.3799202
vn 0.7573854 -0.5310629 0.3799203
vn 0.7573854 -0.531063 0.3799203
vn 0.7573854 -0.531063 0.3799202
vn 0.7573854 -0.531063 0.3799202
vn 0.7059585 0 0.7082533
vn 0.7059585 0 0.7082533
vn 0.7059584 0 0.7082533
vn 0.7059584 0 0.7082533
vn 0.7573854 0.531063 0.3799202
vn 0.7573854 0.5310629 0.3799202
vn 0.7573854 0.531063 0.3799202
vn 0.7573854 0.531063 0.3799202

vt 0.948912 0.752737
vt 0.948912 0.766312
vt 0.948912 0.766312
vt 0.948912 0.752737
vt 0.948912 0.739162
vt 0.948912 0.739162
vt 0.948912 0.752737
vt 0.948912 0.75882
vt 0.948912 0.75882
vt 0.948912 0.752737
vt 0.948912 0.746655
vt 0.948912 0.746655
vt 0.945154 0.752737
vt 0.945154 0.762566
vt 0.945154 0.762566
vt 0.945154 0.752737
vt 0.945154 0.742908
vt 0.945154 0.742908
vt 0.952671 0.752737
vt 0.952671 0.742908
vt 0.952671 0.742908
vt 0.952671 0.752737
vt 0.952671 0.762566
vt 0.952671 0.762566
vt 0.945154 0.762566
vt 0.948912 0.766312
vt 0.945154 0.762566
vt 0.948912 0.766312
vt 0.945154 0.752737
vt 0.948912 0.752737
vt 0.945154 0.742908
vt 0.948912 0.739162
vt 0.948912 0.752737
vt 0.945154 0.752737
vt 0.945154 0.742908
vt 0.948912 0.739162
vt 0.945154 0.752737
vt 0.945154 0.762566
vt 0.945154 0.762566
vt 0.945154 0.762566
vt 0.948912 0.75882
vt 0.945154 0.762566
vt 0.945154 0.752737
vt 0.948912 0.75882
vt 0.945154 0.752737
vt 0.945154 0.742908
vt 0.948912 0.752737
vt 0.945154 0.742908
vt 0.945154 0.742908
vt 0.948912 0.746655
vt 0.945154 0.742908
vt 0.945154 0.752737
vt 0.948912 0.752737
vt 0.948912 0.746655
vt 0.948912 0.739162
vt 0.948912 0.752737
vt 0.948912 0.739162
vt 0.952671 0.742908
vt 0.948912 0.739162
vt 0.948912 0.752737
vt 0.952671 0.742908
vt 0.948912 0.739162
vt 0.948912 0.766312
vt 0.952671 0.752737
vt 0.948912 0.752737
vt 0.948912 0.766312
vt 0.952671 0.762566
vt 0.948912 0.766312
vt 0.948912 0.752737
vt 0.952671 0.752737
vt 0.952671 0.762566
vt 0.948912 0.766312
vt 0.952671 0.752737
vt 0.952671 0.742908
vt 0.948912 0.746655
vt 0.948912 0.752737
vt 0.952671 0.742908
vt 0.952671 0.742908
vt 0.948912 0.746655
vt 0.948912 0.746655
vt 0.952671 0.742908
vt 0.952671 0.752737
vt 0.948912 0.752737
vt 0.948912 0.746655
vt 0.952671 0.752737
vt 0.952671 0.762566
vt 0.948912 0.75882
vt 0.948912 0.752737
vt 0.952671 0.762566
vt 0.952671 0.762566
vt 0.948912 0.75882
vt 0.948912 0.75882
vt 0.952671 0.762566
vt 0.952671 0.752737
vt 0.948912 0.752737
vt 0.948912 0.75882

usemtl Palette
usemap Palette
f 14/14/14 2/2/2 13/13/13
f 13/13/13 2/2/2 1/1/1
f 15/15/15 3/3/3 25/25/25
f 25/25/25 3/3/3 26/26/26
f 16/16/16 4/4/4 27/27/27
f 27/27/27 4/4/4 28/28/28
f 17/17/17 5/5/5 29/29/29
f 29/29/29 5/5/5 30/30/30
f 18/18/18 6/6/6 31/31/31
f 31/31/31 6/6/6 32/32/32
f 34/34/34 33/33/33 35/35/35
f 35/35/35 33/33/33 36/36/36
f 38/38/38 37/37/37 8/8/8
f 8/8/8 37/37/37 7/7/7
f 40/40/40 39/39/39 9/9/9
f 9/9/9 39/39/39 41/41/41
f 43/43/43 42/42/42 10/10/10
f 10/10/10 42/42/42 44/44/44
f 46/46/46 45/45/45 11/11/11
f 11/11/11 45/45/45 47/47/47
f 49/49/49 48/48/48 12/12/12
f 12/12/12 48/48/48 50/50/50
f 52/52/52 51/51/51 53/53/53
f 53/53/53 51/51/51 54/54/54
f 20/20/20 55/55/55 19/19/19
f 19/19/19 55/55/55 56/56/56
f 21/21/21 57/57/57 58/58/58
f 58/58/58 57/57/57 59/59/59
f 22/22/22 60/60/60 61/61/61
f 61/61/61 60/60/60 62/62/62
f 23/23/23 63/63/63 64/64/64
f 64/64/64 63/63/63 65/65/65
f 24/24/24 66/66/66 67/67/67
f 67/67/67 66/66/66 68/68/68
f 70/70/70 69/69/69 71/71/71
f 71/71/71 69/69/69 72/72/72
f 74/74/74 73/73/73 75/75/75
f 75/75/75 73/73/73 76/76/76
f 78/78/78 77/77/77 79/79/79
f 79/79/79 77/77/77 80/80/80
f 82/82/82 81/81/81 83/83/83
f 83/83/83 81/81/81 84/84/84
f 86/86/86 85/85/85 87/87/87
f 87/87/87 85/85/85 88/88/88
f 90/90/90 89/89/89 91/91/91
f 91/91/91 89/89/89 92/92/92
f 94/94/94 93/93/93 95/95/95
f 95/95/95 93/93/93 96/96/96
